<?xml version="1.0" encoding="UTF-8" standalone="no"?>
<svg xmlns:dc="http://purl.org/dc/elements/1.1/" xmlns:cc="http://creativecommons.org/ns#" xmlns:rdf="http://www.w3.org/1999/02/22-rdf-syntax-ns#" xmlns:svg="http://www.w3.org/2000/svg" xmlns="http://www.w3.org/2000/svg" viewBox="0 0 940.58667 748.15997" height="748.15997" width="940.58667" xml:space="preserve" id="svg2" version="1.1">
	<metadata id="metadata8">
		<rdf:RDF>
			<cc:Work rdf:about="">
				<dc:format>image/svg+xml</dc:format>
				<dc:type rdf:resource="http://purl.org/dc/dcmitype/StillImage" />
			</cc:Work>
		</rdf:RDF>
	</metadata>
	<defs id="defs6" />
	<g transform="matrix(1.3333333,0,0,-1.3333333,0,748.16)" id="g10">
		<g transform="scale(0.1)" id="g12">
			<path id="path14" style="fill:#000000;fill-opacity:1;fill-rule:nonzero;stroke:none" d="m 5127.7,5527.38 c 41.55,-46.74 109.06,-25.97 159.25,-46.74 176.59,-41.56 342.78,-105.62 493.37,-207.75 135.05,-13.84 259.67,-51.93 367.02,-135.03 -41.55,-159.26 -103.86,-347.97 -34.61,-514.15 55.39,-155.8 152.32,-294.3 193.87,-457.03 84.84,-290.83 90.02,-612.82 114.26,-929.63 5.19,-3.46 12.14,-13.85 15.58,-1.73 19.03,126.37 121.18,206.01 233.71,251.01 83.09,34.63 206,31.17 283.91,-8.65 95.22,-86.56 121.19,-231.98 84.84,-358.35 -15.6,-67.51 -53.67,-124.65 -81.39,-186.97 17.31,-242.36 77.9,-574.74 -171.37,-701.11 -48.47,-27.7 -105.61,-12.13 -162.72,-12.13 -1.75,-1.72 -3.48,-5.18 -5.22,-6.9 31.18,-121.19 43.3,-276.99 -6.92,-392.98 -3.45,0 -6.92,0 -12.11,0 -3.47,25.96 -6.92,51.92 -8.65,77.9 -3.47,3.47 -6.93,6.9 -10.38,13.84 -13.86,-91.74 -31.18,-174.83 -98.69,-218.12 5.19,69.25 17.31,147.16 -10.38,211.18 0,65.8 0,112.53 0,174.87 -5.19,3.47 -10.39,13.84 -15.6,3.47 6.93,-116 -38.07,-212.95 -102.12,-296.05 -53.67,-202.54 62.33,-379.1 176.58,-524.53 8.66,-15.59 -13.86,-8.66 -17.31,-5.2 -48.49,43.29 -107.35,74.45 -147.15,126.38 -1.73,-1.72 -3.47,-3.47 -6.93,-5.19 29.43,-110.8 57.14,-259.66 0,-365.29 -1.72,0 -3.46,0 -5.19,0 -25.97,76.18 -43.28,159.27 -96.96,225.06 3.49,-20.76 13.86,-32.88 8.66,-50.2 -53.66,0 -79.62,51.95 -124.63,81.37 -102.15,109.06 -178.33,240.62 -188.7,394.7 -1.73,1.73 -5.2,5.18 -6.93,6.92 -41.55,-83.1 -77.9,-167.91 -115.98,-252.74 51.93,-45.01 57.12,-109.06 57.12,-174.86 72.72,-31.17 131.59,-84.83 199.08,-129.82 38.1,-31.17 67.51,-53.67 90.03,-96.95 31.15,-41.546 57.13,-84.828 74.44,-131.566 -1.75,-83.094 81.37,-218.137 -32.88,-264.863 -233.71,-171.399 -605.9,-141.961 -860.41,-36.367 -162.72,81.367 -242.36,183.515 -365.27,320.261 -102.14,135.035 -219.83,271.785 -285.63,431.065 -65.79,157.52 -145.43,327.18 -112.54,510.69 -126.37,13.85 -263.11,12.12 -392.95,12.12 -24.24,-38.08 -15.59,-90.02 -31.17,-131.58 -60.59,-140.21 -65.79,-302.95 -124.63,-444.9 -27.72,-17.31 -29.46,-55.38 -43.29,-84.82 -15.58,-32.89 -31.17,-67.52 -46.75,-102.15 0,-5.19 0,-8.66 0,-12.11 79.63,-41.53 169.67,-122.92 164.45,-221.584 -17.3,-34.629 -15.57,-79.641 -24.22,-117.715 -27.71,-36.348 -45.02,-74.441 -58.86,-115.996 109.06,-76.16 152.33,-209.461 195.61,-327.18 C 4256.91,197.141 4172.09,107.117 4109.76,53.457 3973.01,-36.5703 3765.27,15.3711 3599.06,10.1875 3353.25,41.3281 3110.89,185.02 2996.63,417.004 c -88.29,102.129 -129.83,233.699 -167.92,361.797 -22.5,148.894 -31.16,302.959 -39.82,458.759 -102.13,-219.85 -211.19,-455.294 -439.71,-588.595 -51.93,-32.879 -107.33,-50.195 -162.73,-76.16 -192.15,-64.055 -439.71,-39.817 -628.4,15.562 -91.76,48.488 -247.56,72.727 -244.1,212.953 12.12,76.153 -20.77,188.68 72.71,223.31 102.13,103.87 235.44,157.55 382.58,166.2 3.47,57.12 38.09,128.1 -8.64,176.57 -31.17,109.06 -65.8,216.39 -90.03,327.19 -39.82,43.28 -53.66,96.94 -60.59,154.07 -145.42,190.44 -266.6,391.24 -467.41,534.93 0,-34.63 24.23,-67.5 29.43,-105.59 91.75,-335.86 57.12,-728.83 64.05,-1097.57 -15.59,-287.364 -77.91,-562.625 -257.945,-779.024 -13.847,-19.031 -36.355,-19.031 -58.855,-17.304 -57.133,46.75 -45.016,124.648 -58.859,188.703 -13.852,164.453 -25.965,330.64 -109.067,465.675 -90.015,193.88 -237.164,367 -283.914,578.21 -102.133,330.65 -119.445,694.19 -178.305,1042.16 -13.851,218.11 15.583,429.32 74.442,623.21 -31.152,124.65 -76.168,244.09 -79.637,382.58 -27.699,-24.23 -53.668,-76.16 -96.945,-69.25 -69.25,77.91 -19.035,190.43 5.191,271.8 -12.117,-3.46 -32.883,-13.85 -43.273,-27.69 -27.699,-29.43 -50.1994,-50.21 -83.1017,-62.33 25.9726,69.24 57.1327,143.68 129.8397,190.42 1.734,5.19 12.117,12.13 0,17.32 -27.691,1.73 -69.25,-19.04 -83.098,6.93 0,39.8 8.661,76.16 20.778,112.52 -45.008,1.73 -88.2893,-15.58 -133.301,-22.5 -1.72656,22.5 22.5039,31.16 39.8164,53.66 81.3676,32.9 178.3126,29.44 264.8716,46.74 -45.016,34.63 -109.067,22.51 -164.461,32.88 0,20.78 20.769,32.9 20.769,53.68 65.789,29.44 136.77,53.66 197.359,86.56 -1.734,3.47 -5.195,5.19 -6.929,6.91 -34.629,-1.72 -65.781,1.75 -96.938,8.66 5.184,22.52 53.66,17.31 45.004,53.68 95.211,129.83 219.86,251.01 373.926,280.45 46.75,13.85 98.684,20.76 141.957,43.28 -34.617,8.65 -79.633,1.72 -117.719,-5.21 -69.25,-8.66 -124.636,-45.01 -190.426,-62.31 -5.195,3.46 -1.726,10.37 0,15.58 103.868,197.35 297.766,280.43 448.372,422.39 57.128,29.44 135.028,25.97 200.808,15.59 1.73,3.46 10.39,10.38 1.73,13.85 -27.7,22.49 -57.12,41.55 -90.01,51.94 0,5.18 0,8.64 0,12.11 110.79,29.43 209.47,-27.71 296.02,-83.09 53.67,136.75 202.55,264.87 346.23,292.56 0,-5.2 0,-10.39 0,-15.57 -46.73,-46.75 -77.9,-100.43 -102.13,-155.81 0,-1.74 1.73,-1.74 1.73,-3.46 95.21,69.24 141.96,164.45 271.79,181.77 102.14,6.91 207.74,12.12 308.14,-3.47 5.19,-5.19 3.47,-13.85 0,-19.03 -25.96,-27.72 -65.78,-38.09 -86.55,-65.81 57.12,6.94 107.34,48.49 167.92,53.69 167.92,-6.94 354.89,8.65 491.65,-72.72 1.73,-8.65 -1.73,-15.59 -1.73,-24.24 -39.81,-15.57 -90.03,-3.45 -122.91,-34.62 -6.93,-1.73 -20.77,5.21 -24.24,-5.2 13.84,-17.3 39.81,-5.19 53.66,-22.5 365.28,93.49 708.05,242.36 1095.82,280.45 341.05,84.82 730.57,128.1 1099.28,70.97 90.04,-17.3 176.6,-41.53 264.89,-58.84" />
			<path id="path16" style="fill:#476aaf;fill-opacity:1;fill-rule:nonzero;stroke:none" d="m 4970.17,5523.91 c 6.9,-3.46 10.37,-17.31 20.75,-12.12 34.63,-25.97 69.26,-27.69 103.87,-31.15 256.23,-41.56 496.84,-135.03 701.12,-289.12 166.18,-197.36 206.02,-446.63 289.1,-680.34 39.81,-219.86 70.99,-443.18 105.62,-666.49 -22.51,-17.31 -19.05,-48.47 -15.59,-74.44 100.41,-626.68 12.11,-1277.6 -176.58,-1835.02 -15.57,-8.66 -8.66,13.85 -22.5,8.66 -13.87,-31.19 -22.52,-65.8 -27.7,-102.15 -76.18,-211.2 -155.8,-425.86 -311.61,-604.18 -46.75,-51.95 -100.41,-112.53 -150.61,-167.91 6.91,-8.67 12.12,1.72 19.04,0 48.47,39.81 95.21,83.08 143.68,121.18 5.2,0 25.98,10.38 19.04,-6.93 -19.04,-51.94 -53.66,-98.69 -74.42,-148.88 3.45,-6.92 10.38,-1.74 15.57,0 72.71,79.63 124.64,173.12 145.41,276.99 24.25,6.92 29.45,76.15 58.86,27.7 20.78,-29.44 39.83,-58.87 34.63,-98.68 -5.19,-3.47 -10.38,-5.19 -15.59,-6.92 10.4,-136.78 -34.62,-256.227 -77.9,-373.934 6.93,-8.66 10.4,3.457 15.59,6.926 67.52,91.738 112.52,193.878 109.07,313.328 29.41,8.65 50.19,-19.03 72.7,-32.88 69.24,-60.59 150.6,-91.76 202.55,-174.862 8.65,-22.493 -15.57,-5.188 -19.06,-19.036 24.24,-67.519 105.61,-107.324 105.61,-186.953 -15.57,6.906 -38.09,-8.664 -24.22,-27.707 20.76,-34.629 -13.87,-60.601 -31.17,-88.289 -173.13,-107.324 -406.82,-117.715 -618.02,-86.562 -169.66,45.011 -275.26,171.386 -379.13,308.144 0,3.465 0,6.934 0,10.379 31.17,8.656 74.43,-24.226 86.56,17.316 -34.61,10.403 -74.46,8.653 -112.54,13.868 -36.34,81.347 -81.35,162.702 -112.51,249.282 13.84,-1.73 24.25,0 31.16,12.1 -12.13,24.25 -50.2,1.74 -51.93,31.17 19.05,17.31 65.77,-24.22 51.93,12.13 -15.58,19.03 -41.54,19.03 -64.06,22.5 -13.84,39.81 -12.1,84.83 -25.97,124.63 -6.92,17.32 -10.38,-8.64 -20.75,-3.45 -12.14,64.05 -17.32,129.82 -19.06,199.08 34.62,0 69.25,-3.47 96.96,15.59 -25.98,22.5 -67.53,8.65 -100.42,12.11 -1.73,110.79 13.85,221.58 34.62,327.18 41.56,20.78 76.17,45.02 112.52,74.44 13.87,43.28 67.51,55.41 102.14,77.91 155.8,95.21 335.86,219.85 405.11,399.9 65.76,128.1 154.07,247.55 195.6,386.05 -13.83,19.03 -22.49,-20.78 -32.88,-31.17 -81.38,-167.92 -173.13,-339.32 -342.77,-436.25 -60.59,-43.28 -122.91,-83.09 -186.98,-116 -10.38,6.95 -8.66,29.45 -25.97,29.45 -3.44,-19.04 -5.17,-38.09 -8.66,-57.13 -76.15,-51.93 -166.18,-84.83 -259.67,-105.62 -10.38,15.59 0,45.04 -20.76,58.88 -31.17,-17.31 12.1,-83.09 -38.09,-77.91 -8.66,27.7 19.06,48.47 0,72.72 -31.16,-24.25 -12.12,-58.87 -39.82,-84.84 -22.51,-6.91 -43.27,-12.12 -65.78,-19.04 -8.66,-5.18 -17.31,-10.39 -24.23,-15.58 -13.85,-5.18 -27.71,-10.38 -41.53,-15.57 -84.84,1.73 -159.3,-25.97 -245.85,-24.24 -1.74,6.93 3.48,19.03 -3.46,24.24 -17.31,0 -13.85,-20.77 -24.24,-27.71 -74.43,8.66 -152.34,8.66 -228.49,12.12 -3.49,278.71 -53.68,540.13 -199.08,759.98 -5.22,-1.74 0,-6.92 -5.22,-8.65 57.15,-209.48 141.97,-408.56 141.97,-642.27 12.11,-140.22 -3.47,-276.98 -20.78,-410.29 -3.46,-3.44 -6.94,-8.65 -12.11,-6.9 -5.2,13.83 -1.74,31.15 -15.58,39.79 -3.47,-5.18 -6.94,-10.37 -10.39,-15.58 -6.93,-93.47 -13.86,-188.69 -24.24,-282.17 -22.52,-10.38 -8.65,39.81 -27.7,12.12 -15.58,-185.24 -109.06,-339.3 -174.84,-502.034 -20.78,1.715 -38.1,15.584 -58.86,19.034 -105.6,50.21 -221.6,70.98 -315.09,148.88 -48.45,34.63 -96.93,67.51 -148.87,90.02 -6.92,-17.29 25.97,-31.17 31.16,-46.73 103.88,-114.26 259.69,-204.274 413.75,-249.29 69.25,5.184 136.75,-8.656 199.08,0 -24.22,17.313 -55.39,17.313 -83.09,25.958 -6.93,27.712 24.24,46.762 36.34,70.982 5.22,1.74 10.39,-1.72 15.59,-3.44 29.42,-48.484 117.71,-96.968 124.64,-157.566 -5.18,-8.641 -17.32,1.75 -22.49,-10.379 43.28,-79.621 -19.06,-147.137 -43.27,-214.656 -25.98,-5.195 -46.77,19.039 -71,27.703 -141.95,62.316 -339.32,98.672 -482.98,15.566 -29.45,-6.914 -53.67,-22.507 -81.38,-34.621 -13.84,-1.726 -17.31,-8.648 -20.77,-12.105 5.19,-5.207 15.58,-5.207 20.77,0 22.52,3.457 45.02,6.922 69.24,10.379 251.03,74.441 529.75,8.652 682.09,-202.559 1.72,-20.762 -19.04,-3.445 -27.69,-3.445 -5.21,6.922 -12.13,5.191 -19.03,5.191 -5.22,-17.312 20.75,-27.703 31.13,-43.269 24.24,-39.844 60.58,-79.641 81.38,-124.649 -1.73,-12.129 3.45,-36.355 -15.58,-20.781 -5.22,3.469 -8.67,10.383 -15.59,12.129 -1.73,-1.746 -5.19,-5.195 -6.93,-6.941 3.48,-45 24.25,-100.403 -6.91,-140.215 -27.72,-24.239 -50.2,-64.055 -86.56,-70.9886 -161,8.6524 -347.98,-65.78121 -486.47,27.7149 -140.22,55.3907 -271.78,148.8747 -366.99,280.4497 -12.12,15.566 38.08,22.5 3.45,27.695 -8.65,0 -15.57,0 -22.49,0 -93.49,154.07 -164.47,318.523 -192.16,498.562 10.38,0 24.23,0 27.69,12.121 -5.2,19.043 -36.35,69.25 15.58,53.664 5.2,-1.73 8.66,3.458 12.12,6.922 -12.12,10.379 -29.43,8.664 -46.75,8.664 -6.92,131.564 -22.49,257.934 -34.61,386.054 13.84,8.64 32.88,3.45 43.27,15.58 -10.39,19.03 -34.62,3.46 -48.46,12.12 -3.47,173.11 0,344.49 32.88,502.04 292.57,180.03 309.88,552.22 275.26,879.42 -24.24,237.17 -167.93,470.87 -399.9,560.88 -219.85,95.22 -462.21,148.89 -650.92,315.07 29.43,84.84 86.56,183.52 38.09,280.46 -12.12,-22.5 -1.73,-55.4 -10.39,-77.9 -1.73,-64.07 -27.7,-117.72 -39.81,-178.31 -3.47,-5.19 -10.39,-1.75 -15.58,-3.46 -51.93,27.69 6.92,62.31 -3.47,100.4 24.24,200.82 20.79,420.67 -65.78,592.06 -19.04,8.65 -15.58,-17.32 -12.12,-25.97 55.41,-188.71 67.52,-415.48 38.09,-619.75 -41.55,15.57 -41.55,48.47 -77.9,74.44 8.66,43.27 6.92,90.02 12.12,135.02 1.73,5.19 6.92,0 8.65,5.19 -10.39,96.95 -48.47,188.7 -110.8,259.68 -1.72,-1.73 -3.46,-1.73 -3.46,-3.45 31.17,-114.27 109.07,-219.87 65.79,-351.44 -6.92,-3.45 -8.66,3.46 -13.86,1.74 -27.69,32.88 -51.93,70.97 -83.09,96.93 -5.19,-29.43 36.36,-46.74 31.16,-81.37 -86.56,12.13 -107.33,126.39 -190.43,135.05 0,1.73 0,3.45 0,5.19 69.25,8.66 143.69,3.47 195.63,53.66 -1.74,1.74 -3.46,3.47 -5.2,5.19 -206,-38.07 -332.38,154.08 -524.53,169.67 -1.74,10.38 10.38,12.1 15.58,15.57 32.88,13.85 77.9,-32.88 84.81,15.59 -119.44,76.16 -289.09,38.09 -424.13,20.77 -5.19,5.19 -1.72,12.11 0,15.58 41.56,27.7 81.38,57.12 121.19,84.82 -1.73,5.2 -6.93,0 -8.66,5.2 -58.86,-19.04 -129.83,-10.39 -183.5,-43.28 -20.77,-5.19 -41.55,-13.85 -65.782,-12.12 -5.192,24.24 34.612,29.43 50.202,46.74 29.43,17.31 60.59,29.44 93.49,38.09 10.37,6.91 6.92,13.85 -3.47,15.57 -70.98,5.21 -135.027,-8.66 -195.613,-25.97 0,5.21 0,10.4 0,15.59 43.273,77.9 98.663,141.96 171.373,190.43 211.21,141.96 437.99,247.55 669.96,342.77 602.44,103.86 1161.6,313.35 1741.53,474.34 38.11,5.19 -10.38,-22.5 8.66,-31.16 252.76,76.16 512.44,140.21 787.67,160.99 225.06,8.66 441.46,-8.65 652.68,-34.62" />
			<path id="path18" style="fill:#121932;fill-opacity:1;fill-rule:nonzero;stroke:none" d="m 5048.07,5511.79 c 15.56,8.66 19.03,5.19 20.75,-3.47 -1.72,-3.46 -20.75,-6.91 -20.75,3.47" />
			<path id="path20" style="fill:#476aaf;fill-opacity:1;fill-rule:nonzero;stroke:none" d="m 5963.84,5148.25 c 84.81,-20.79 17.3,-129.84 46.74,-190.43 5.19,-20.78 13.85,-41.55 12.1,-65.78 -3.44,0 -8.66,0 -12.1,0 -5.2,5.19 -8.65,10.38 -12.12,15.57 -36.37,110.8 -103.87,207.74 -166.2,308.16 51.94,-3.47 86.55,-50.21 131.58,-67.52" />
			<path id="path22" style="fill:#476aaf;fill-opacity:1;fill-rule:nonzero;stroke:none" d="m 6031.34,5165.56 c 19.06,-10.38 50.21,-13.85 57.14,-32.9 -15.58,-10.38 -31.18,-20.76 -53.66,-15.57 -17.3,15.57 -51.93,39.81 -58.86,67.5 24.25,6.93 34.62,-19.03 55.38,-19.03" />
			<path id="path24" style="fill:#476aaf;fill-opacity:1;fill-rule:nonzero;stroke:none" d="m 6116.17,5103.24 c -22.5,-51.93 -31.16,-109.08 -53.66,-161.01 -1.72,0 -3.46,0 -5.21,0 -10.37,46.75 -6.9,98.68 -15.56,145.43 6.91,19.03 31.16,1.72 39.81,15.58 12.12,0 24.24,0 34.62,0" />
			<path id="path26" style="fill:#476aaf;fill-opacity:1;fill-rule:nonzero;stroke:none" d="m 6022.68,4892.04 c 6.94,-15.59 5.21,-19.06 3.49,-24.25 -8.65,-3.46 -10.4,5.19 -15.59,8.66 0,5.19 0,10.4 0,15.59 3.44,0 8.66,0 12.1,0" />
			<path id="path28" style="fill:#476aaf;fill-opacity:1;fill-rule:nonzero;stroke:none" d="m 6225.25,4287.86 c 31.14,-43.28 50.2,-95.21 55.39,-162.72 -24.25,57.12 -53.67,107.32 -55.39,162.72" />
			<path id="path30" style="fill:#476aaf;fill-opacity:1;fill-rule:nonzero;stroke:none" d="m 6190.63,4249.77 c -3.48,0 -6.94,0 -12.14,0 -6.91,15.59 -5.18,20.78 -3.45,25.96 15.59,0 13.84,-15.56 15.59,-25.96" />
			<path id="path32" style="fill:#476aaf;fill-opacity:1;fill-rule:nonzero;stroke:none" d="m 6190.63,4249.77 c 5.17,-6.92 8.66,-13.85 12.1,-20.76 29.44,-115.99 96.95,-226.79 88.29,-346.23 -5.18,6.91 -10.38,12.1 -15.57,19.03 1.74,5.19 -3.47,8.66 -6.92,12.13 -15.58,3.46 -8.65,-19.06 -5.21,-24.25 79.63,-299.49 65.8,-637.06 70.97,-965.98 -27.69,-5.19 -53.65,-15.59 -81.34,-19.04 24.24,365.28 15.58,735.74 -39.83,1083.7 -12.11,86.56 -25.97,173.11 -34.63,261.4 5.2,0 8.66,0 12.14,0" />
			<path id="path34" style="fill:#476aaf;fill-opacity:1;fill-rule:nonzero;stroke:none" d="m 1563.23,4057.62 c 5.2,-12.13 17.32,-5.19 25.97,-6.93 69.25,-25.97 138.5,-48.47 206.01,-81.35 3.46,-6.94 15.59,-10.4 15.59,-20.78 -38.09,-6.94 -74.45,-12.12 -107.34,-31.16 17.31,-10.4 6.92,-27.71 -1.74,-38.09 3.47,-15.58 -10.37,-22.5 -10.37,-36.36 131.56,15.59 257.94,-15.57 368.73,-65.78 19.04,-34.63 46.74,-58.85 64.05,-93.47 -5.19,0 -12.12,0 -17.31,0 -69.24,31.15 -152.34,69.25 -231.98,39.81 0,-1.74 0,-1.74 0,-3.47 -20.77,-8.65 -3.46,-39.81 -31.16,-31.16 -10.39,-13.84 -34.62,-25.96 -32.88,-43.27 20.76,-5.2 41.54,10.37 64.04,10.37 8.66,-77.89 76.18,-138.48 115.99,-193.89 57.12,-53.66 133.3,-98.66 211.21,-117.71 20.77,10.39 45,13.84 62.31,31.16 31.17,57.14 12.13,133.3 -17.31,186.97 0,5.19 0,12.11 0,17.31 8.66,-1.73 17.31,-5.2 27.7,-8.65 122.91,-96.96 264.87,-152.36 401.63,-214.67 0,-1.73 0,-5.19 0,-6.93 -157.53,-32.89 -308.15,-84.82 -443.17,-176.57 -53.67,0 -96.95,43.28 -145.42,64.05 -5.2,15.58 12.11,15.58 19.04,22.51 -8.65,13.85 27.7,32.88 0,31.16 -8.65,-12.13 -19.04,-13.84 -31.16,-12.13 -48.47,12.13 31.16,58.87 -31.16,36.35 -22.51,-19.03 -38.09,13.87 -57.13,19.06 -58.86,46.74 -109.07,79.62 -159.26,140.21 -15.59,13.85 -39.83,41.56 -62.33,62.34 -31.15,39.81 -62.32,79.62 -90.02,121.18 -1.73,10.38 12.12,13.84 12.12,22.5 -41.55,-20.78 -62.32,39.81 -95.21,62.31 -10.39,24.25 -50.21,45.02 -60.6,74.44 31.16,10.4 58.86,-5.19 88.29,-8.66 29.43,17.32 -17.3,27.71 -15.57,46.75 -64.06,77.9 -145.43,148.89 -237.18,199.08 -1.73,6.94 3.47,3.47 6.93,8.66 65.79,8.65 121.18,-13.85 188.69,-5.19" />
			<path id="path36" style="fill:#476aaf;fill-opacity:1;fill-rule:nonzero;stroke:none" d="m 1056.01,3827.38 c 138.49,27.69 283.9,0 427.6,0 58.85,-43.28 98.67,-105.61 152.33,-154.08 0,-22.5 -24.23,-41.54 -22.5,-62.32 15.58,6.91 24.24,29.43 43.28,25.97 93.49,-117.72 199.08,-247.55 327.19,-330.66 -13.86,-19.04 15.58,-27.7 6.92,-46.73 12.12,-6.93 36.36,1.73 46.75,-19.05 12.11,-17.31 -12.12,-36.35 -3.47,-55.4 19.05,3.46 13.84,27.7 27.7,34.62 45.01,-17.31 88.29,-39.81 128.1,-65.78 10.39,-19.03 -13.84,-20.77 -24.23,-27.69 -299.49,-212.93 -268.32,-600.71 -361.81,-917.51 -57.13,-110.8 -162.74,-176.58 -193.89,-297.77 -1.73,0 -3.46,0 -5.19,0 -76.18,145.43 -173.12,268.34 -296.03,391.24 22.5,1.74 53.66,-13.85 77.9,0 -81.37,60.59 -173.12,96.95 -261.41,138.49 -107.33,235.45 -206,474.34 -337.57,701.11 -67.512,65.81 22.5,124.66 15.578,195.64 3.461,22.5 6.922,53.66 -3.457,74.43 -1.731,-3.46 -5.199,-5.18 -8.653,-8.64 -13.859,-45.03 -6.937,-96.96 -31.168,-136.77 -1.734,0 -3.46,0 -6.921,0 -20.782,53.67 -10.391,121.17 -46.746,171.39 -10.383,-12.13 -5.188,-34.62 -1.727,-46.75 10.387,-110.8 34.629,-216.39 74.437,-315.07 159.274,-316.79 346.227,-623.22 392.977,-981.57 -25.96,12.12 -25.96,45.01 -38.09,67.52 -5.19,5.19 -8.66,12.12 -15.58,13.85 -1.73,-3.47 -5.19,-5.19 -6.92,-6.91 115.98,-325.48 81.36,-730.55 65.78,-1090.64 -8.66,-79.64 -17.31,-159.269 -39.81,-233.71 -25.97,-124.641 -77.91,-238.906 -136.77,-349.688 -24.239,-20.781 -24.239,-81.367 -72.704,-58.867 -31.168,45.02 -17.316,109.063 -24.238,162.735 -3.465,219.863 -62.32,415.48 -183.5,585.13 -36.359,46.74 -41.551,107.33 -81.367,152.34 -27.703,-12.13 -29.43,25.97 -41.543,41.55 -67.516,159.28 -105.606,332.39 -140.227,507.22 -1.738,1.74 -3.461,5.19 -5.195,6.94 -46.742,216.39 -53.668,451.82 -74.449,678.6 -25.961,-25.97 -3.449,-72.7 -22.5,-102.13 -5.192,-1.74 -8.653,1.72 -12.117,5.19 -25.973,363.54 12.117,713.24 148.882,1016.19 6.922,13.85 24.227,24.23 25.961,41.54 41.551,-83.09 86.563,-157.53 136.766,-225.05 -1.727,86.56 -8.656,180.04 -19.035,268.33 12.113,45.01 12.113,96.95 31.148,140.23 19.051,-8.65 3.473,-41.55 12.125,-58.87 13.848,-41.53 60.598,-72.7 77.903,-112.52 32.894,-22.5 53.66,-55.4 93.484,-58.85 1.73,1.72 5.191,3.45 6.926,5.19 -53.672,83.09 -90.024,180.03 -100.41,283.9 -1.735,60.59 43.281,102.15 74.437,148.89 41.543,5.19 91.742,8.66 124.645,-15.59 32.894,-20.77 72.698,-53.66 100.408,-79.62" />
			<path id="path38" style="fill:#32468c;fill-opacity:1;fill-rule:nonzero;stroke:none" d="m 6342.95,3785.82 c -6.91,6.93 -6.91,19.06 -1.73,25.97 13.86,1.74 10.38,-24.23 1.73,-25.97" />
			<path id="path40" style="fill:#000000;fill-opacity:1;fill-rule:nonzero;stroke:none" d="m 1140.83,3765.04 c 1.74,-17.31 -19.04,-27.68 -10.39,-45 17.31,10.38 31.17,34.62 46.75,38.1 17.31,-25.98 -19.05,-38.1 -15.58,-62.34 17.31,-5.19 45.01,53.68 50.21,12.12 -20.78,-46.75 -58.86,-86.56 -81.38,-133.3 -58.86,-109.06 -90.01,-228.5 -96.93,-358.34 -24.25,5.19 -15.59,36.35 -27.71,51.94 -46.737,157.52 -13.851,334.11 65.78,465.67 36.37,3.47 32.9,45.02 69.25,51.93 6.92,-6.91 -1.73,-13.84 0,-20.78" />
			<path id="path42" style="fill:#476aaf;fill-opacity:1;fill-rule:nonzero;stroke:none" d="m 6346.43,3758.14 c 24.23,-174.86 51.94,-353.18 31.15,-529.75 -13.84,173.11 -24.23,341.04 -55.39,502.03 -3.47,6.94 3.45,12.12 8.66,19.06 5.19,1.72 10.37,5.18 15.58,8.66" />
			<path id="path44" style="fill:#000000;fill-opacity:1;fill-rule:nonzero;stroke:none" d="m 2124.13,3683.7 c 15.58,-12.13 31.16,-25.97 46.74,-38.09 24.23,-22.5 51.94,-36.37 76.17,-65.79 1.73,-6.93 3.46,-15.58 5.2,-24.24 29.42,-51.93 41.55,-135.03 10.39,-190.42 -79.64,-57.13 -159.27,20.77 -228.52,53.65 -55.4,53.68 -128.1,122.93 -155.81,206.01 8.66,24.25 -12.11,32.91 -31.15,24.25 -12.13,-3.46 -24.24,-6.93 -36.35,-8.66 -6.93,19.04 12.11,36.36 31.15,48.47 8.66,-1.74 12.12,5.19 17.31,10.38 1.74,10.4 -3.46,25.97 15.58,24.25 79.64,29.44 162.74,-8.66 231.98,-39.81 5.19,0 12.12,0 17.31,0" />
			<path id="path46" style="fill:#476aaf;fill-opacity:1;fill-rule:nonzero;stroke:none" d="m 1897.36,3707.92 c -12.13,-5.19 -17.32,-5.19 -22.52,-5.19 0,5.19 0,12.12 0,17.31 10.39,-5.19 20.77,-1.72 22.52,-12.12" />
			<path id="path48" style="fill:#121932;fill-opacity:1;fill-rule:nonzero;stroke:none" d="m 1956.21,3704.46 c 15.58,8.65 19.04,5.2 22.5,-1.73 -3.46,-5.19 -20.76,-8.66 -22.5,1.73" />
			<path id="path50" style="fill:#ffffff;fill-opacity:1;fill-rule:nonzero;stroke:none" d="m 2221.07,3567.7 c 25.97,-55.4 65.79,-141.96 10.39,-195.61 -76.17,-12.13 -133.29,24.22 -181.77,70.97 1.73,17.31 5.2,32.9 22.51,43.27 -1.73,65.78 -12.12,133.3 -77.9,166.19 -34.62,1.74 -64.06,-5.19 -96.94,-6.91 -10.4,25.96 15.57,20.77 27.69,25.96 115.98,5.2 219.85,-15.59 296.02,-103.87" />
			<path id="path52" style="fill:#476aaf;fill-opacity:1;fill-rule:nonzero;stroke:none" d="m 491.652,3661.17 c 3.465,-45 32.883,-77.89 22.508,-128.09 -25.965,-19.05 -53.672,-32.9 -57.129,-58.87 -19.047,-17.31 -17.312,-48.47 -39.82,-58.84 1.734,86.55 32.898,167.91 65.781,245.8 3.469,0 5.203,0 8.66,0" />
			<path id="path54" style="fill:#000000;fill-opacity:1;fill-rule:nonzero;stroke:none" d="m 1473.22,3546.93 c -1.74,-24.25 -20.78,-38.09 -24.24,-60.6 121.18,-115.98 181.77,-299.48 136.76,-476.06 0,-1.72 0,-1.72 0,-3.47 0,-5.19 0,-12.12 0,-19.03 -39.82,-72.72 -129.83,-133.3 -221.59,-133.3 -65.78,3.46 -147.15,6.93 -174.84,74.43 -15.58,67.53 -8.65,150.61 -5.2,218.13 20.78,10.39 17.32,27.7 19.05,43.29 -5.19,1.72 -8.66,1.72 -13.85,3.45 0,17.3 0,36.36 0,53.67 15.58,90.02 41.55,176.58 77.9,257.93 31.16,25.97 84.83,15.59 122.91,10.4 25.97,17.31 48.47,45 79.64,51.93 6.92,-5.19 1.72,-13.84 3.46,-20.77" />
			<path id="path56" style="fill:#476aaf;fill-opacity:1;fill-rule:nonzero;stroke:none" d="m 1355.49,3474.21 c -64.04,-76.16 -103.86,-162.72 -143.67,-257.93 5.18,100.4 27.69,186.97 65.78,268.33 27.69,-3.47 51.92,3.45 77.89,5.19 5.21,-3.47 1.74,-10.4 0,-15.59" />
			<path id="path58" style="fill:#ffffff;fill-opacity:1;fill-rule:nonzero;stroke:none" d="m 1585.74,3010.27 c 0,-1.72 0,-1.72 0,-3.47 -24.24,-25.97 -45.01,-48.46 -65.78,-65.78 -67.52,-53.66 -162.73,-79.62 -249.28,-48.47 -17.32,12.12 -38.09,19.04 -51.95,39.81 1.73,15.59 -12.11,24.25 -6.91,39.82 36.35,-13.84 76.16,0 115.98,0 65.79,65.78 93.48,154.08 70.97,247.55 -15.57,34.62 -41.54,81.37 -84.82,90.03 -15.58,15.58 15.57,24.24 15.57,39.81 24.25,48.48 67.53,70.98 96.95,115.99 53.67,-39.82 83.1,-102.13 109.07,-159.27 45.01,-86.56 43.28,-197.34 50.2,-296.02" />
			<path id="path60" style="fill:#f44094;fill-opacity:1;fill-rule:nonzero;stroke:none" d="m 6883.09,3458.64 c 1.71,-8.65 -27.71,-17.31 -12.14,-34.62 15.59,6.92 36.37,13.85 55.42,6.92 57.11,-12.13 57.11,-70.98 70.97,-116 31.16,-159.25 -43.28,-299.48 -109.08,-420.66 -20.75,-72.71 -98.66,-133.3 -64.04,-226.78 36.36,50.2 29.41,126.38 74.43,167.93 5.2,6.91 1.75,25.97 19.06,19.04 -3.47,-188.71 64.05,-432.8 -93.49,-552.25 -50.2,-50.2 -143.69,-70.97 -218.11,-43.28 -20.8,46.74 -32.9,100.42 -62.34,140.23 -29.43,43.28 -53.67,96.94 -91.74,136.75 -6.93,17.31 12.1,13.87 19.04,10.4 53.65,-39.82 96.93,-95.21 131.56,-143.68 19.04,0 1.73,19.03 5.2,31.16 -25.97,119.43 -95.21,219.85 -202.56,283.9 5.2,17.3 12.13,36.36 22.52,50.2 46.74,-19.03 55.39,-72.7 102.14,-88.27 58.86,-50.22 138.5,-15.59 206.02,-12.13 1.72,5.2 -1.75,8.66 -5.22,12.13 -69.23,-10.4 -140.21,1.72 -190.43,38.07 -3.43,15.58 24.25,8.66 34.63,5.2 41.55,-10.39 84.84,3.46 114.25,29.42 -25.97,17.31 -48.45,-10.37 -77.9,0 -67.51,-8.66 -126.36,8.66 -176.56,43.28 3.44,69.24 -34.63,140.23 -15.6,214.67 1.74,53.66 8.67,103.87 5.22,159.27 46.73,70.97 79.62,166.18 159.25,206 84.84,57.14 180.04,98.67 296.02,90.02 1.75,-1.73 5.19,-3.47 3.48,-6.92" />
			<path id="path62" style="fill:#000000;fill-opacity:1;fill-rule:nonzero;stroke:none" d="m 2414.96,3380.74 c -17.31,-31.17 -38.08,-55.4 -74.43,-58.86 1.73,19.03 24.24,31.15 36.35,46.74 17.31,13.84 13.85,53.66 41.55,46.75 -1.73,-12.12 1.73,-24.25 -3.47,-34.63" />
			<path id="path64" style="fill:#fdd2be;fill-opacity:1;fill-rule:nonzero;stroke:none" d="m 3097.04,3122.79 c 159.27,-233.7 154.07,-567.82 112.52,-853.45 -32.88,-141.96 -143.68,-273.52 -249.28,-353.17 -20.78,0 -1.73,25.97 -3.46,38.1 36.36,90.02 45,197.35 39.81,301.22 19.05,12.11 41.55,29.41 53.67,45.01 -17.31,13.84 -32.9,-13.85 -53.67,-13.85 -15.57,180.03 -57.13,347.95 -145.41,496.85 12.11,24.22 41.55,41.53 50.2,64.03 -24.23,10.4 -29.43,-27.69 -53.67,-24.23 -10.38,19.04 10.39,43.28 -22.5,46.75 -90.02,121.18 -226.78,190.43 -360.08,226.77 0,8.66 15.58,22.51 27.7,25.97 3.46,17.31 38.08,12.13 20.78,31.16 -25.97,-17.31 -51.94,-36.35 -79.64,-50.2 -55.4,10.39 -107.33,32.89 -162.73,43.28 -6.93,29.42 32.9,31.17 50.2,46.74 124.65,69.24 263.13,105.61 405.09,136.76 145.42,-15.59 292.57,-86.55 370.47,-207.74" />
			<path id="path66" style="fill:#476aaf;fill-opacity:1;fill-rule:nonzero;stroke:none" d="m 2068.73,3263.01 c 1.74,-6.91 -3.46,-12.11 -8.65,-10.38 -13.85,-5.19 -17.31,10.38 -15.58,19.03 8.66,-1.71 22.5,5.22 24.23,-8.65" />
			<path id="path68" style="fill:#12100f;fill-opacity:1;fill-rule:nonzero;stroke:none" d="m 1203.16,3190.32 c -1.73,-15.59 1.73,-32.9 -19.05,-43.29 1.73,15.58 3.47,31.17 5.2,46.74 5.19,-1.73 8.66,-1.73 13.85,-3.45" />
			<path id="path70" style="fill:#fdd2be;fill-opacity:1;fill-rule:nonzero;stroke:none" d="m 2404.57,3084.7 c 8.66,-6.91 -1.73,-27.69 15.59,-20.77 6.93,15.58 31.16,5.21 46.74,8.65 79.63,-34.62 160.99,-65.78 233.71,-115.97 36.35,-20.78 81.36,-55.4 93.48,-90.03 -1.73,-5.18 -5.2,-10.39 -8.66,-15.58 3.46,-6.92 6.93,-13.85 8.66,-20.77 0,-5.2 -1.73,-8.66 -1.73,-13.85 -5.19,-1.73 -12.11,-5.2 -15.58,-8.66 -3.46,-3.47 -8.66,-5.19 -6.92,-8.66 10.39,-12.11 19.03,6.93 27.69,8.66 24.24,-32.88 -10.38,-32.88 -19.04,-55.4 20.78,-8.66 32.89,22.52 57.13,15.58 95.2,-148.86 121.18,-325.45 133.3,-508.96 -20.78,-13.84 -46.75,-22.5 -62.33,-39.82 24.23,-10.37 39.82,17.32 65.79,12.13 5.19,-124.65 -10.39,-238.89 -62.32,-339.3 -105.61,-81.38 -245.83,-100.42 -382.59,-115.99 -206.01,-13.85 -389.51,25.97 -559.16,100.4 0,3.46 0,5.19 0,8.65 24.23,10.39 50.21,13.85 72.7,25.97 -24.23,10.38 -58.86,5.19 -84.82,1.72 -46.75,-15.56 -100.41,-36.34 -114.26,-90 17.31,-22.52 17.31,17.32 32.89,22.5 20.77,8.67 34.62,34.62 62.32,24.23 141.96,-98.67 316.82,-128.09 496.85,-143.69 1.73,-20.78 -34.62,-32.88 -53.66,-43.28 -161,-109.06 -403.37,-110.78 -585.14,-46.74 -69.24,41.56 -143.69,93.49 -140.22,183.52 0,84.8 6.92,167.92 70.98,221.58 38.08,46.74 79.63,100.4 112.53,150.62 -15.59,51.93 27.69,86.56 31.15,136.74 34.62,154.09 55.4,313.36 90.03,467.42 38.07,136.76 138.49,263.13 261.39,335.85 64.06,-8.66 122.91,-31.16 183.5,-46.75" />
			<path id="path72" style="fill:#476aaf;fill-opacity:1;fill-rule:nonzero;stroke:none" d="m 6377.58,3065.66 c 6.93,-41.54 6.93,-76.17 6.93,-109.05 -6.93,3.45 -8.66,-5.21 -15.59,-1.74 1.74,29.43 -5.18,77.9 8.66,110.79" />
			<path id="path74" style="fill:#000000;fill-opacity:1;fill-rule:nonzero;stroke:none" d="m 3084.93,3041.43 c -5.2,-58.85 -39.82,-91.75 -84.84,-131.57 -15.57,-1.74 -8.65,25.97 -5.18,34.63 5.18,22.5 12.11,43.28 17.3,65.78 1.74,8.65 5.19,19.04 6.93,27.69 5.2,29.43 55.4,25.97 65.79,3.47" />
			<path id="path76" style="fill:#fdd2be;fill-opacity:1;fill-rule:nonzero;stroke:none" d="m 3062.41,3017.2 c -8.66,-20.77 -17.3,-48.49 -39.81,-53.67 -8.65,15.58 1.74,31.15 3.46,46.74 10.39,34.62 46.74,34.62 36.35,6.93" />
			<path id="path78" style="fill:#f44094;fill-opacity:1;fill-rule:nonzero;stroke:none" d="m 6362,2882.16 c -46.75,-24.23 -65.78,-76.17 -117.71,-86.56 -3.47,27.7 3.44,51.93 5.19,77.9 38.08,-5.19 74.43,3.46 93.47,27.71 17.32,10.38 22.52,-3.47 19.05,-19.05" />
			<path id="path80" style="fill:#03060e;fill-opacity:1;fill-rule:nonzero;stroke:none" d="m 1648.07,2847.53 c -5.2,0 -8.66,0 -12.13,0 3.47,8.66 5.19,17.31 8.66,25.97 13.85,0 10.39,-22.5 3.47,-25.97" />
			<path id="path82" style="fill:#f44094;fill-opacity:1;fill-rule:nonzero;stroke:none" d="m 6393.16,2873.5 c -5.19,-58.85 3.46,-124.63 -43.28,-162.72 -17.31,-41.55 -67.52,-51.93 -109.06,-70.98 -8.65,1.74 -13.85,-3.46 -22.5,-3.46 6.93,41.54 13.85,84.82 19.04,128.11 74.45,6.92 114.24,48.46 143.69,109.05 5.18,0 8.66,0 12.11,0" />
			<path id="path84" style="fill:#dcb6a5;fill-opacity:1;fill-rule:nonzero;stroke:none" d="m 2794.09,2866.58 c 19.04,-5.18 20.77,-15.58 10.38,-27.71 -6.92,3.47 -12.11,8.66 -19.04,12.13 3.46,5.19 6.93,10.4 8.66,15.58" />
			<path id="path86" style="fill:#12100f;fill-opacity:1;fill-rule:nonzero;stroke:none" d="m 2804.47,2838.87 c -3.46,-3.44 -6.92,-6.91 -10.38,-8.64 -1.73,6.92 -5.2,13.85 -8.66,20.77 6.93,-3.47 12.12,-8.66 19.04,-12.13" />
			<path id="path88" style="fill:#000000;fill-opacity:1;fill-rule:nonzero;stroke:none" d="m 1648.07,2847.53 c -1.74,-15.57 -5.2,-31.15 -6.94,-46.73 -34.61,-95.21 -117.71,-200.82 -230.23,-204.28 -10.39,-3.45 -36.36,-10.39 -36.36,5.2 121.18,24.23 216.39,135.03 261.4,245.81 3.47,0 6.93,0 12.13,0" />
			<path id="path90" style="fill:#000000;fill-opacity:1;fill-rule:nonzero;stroke:none" d="m 2797.55,2807.72 c -8.66,-1.73 -17.3,-20.77 -27.69,-8.66 -1.74,3.47 3.46,5.19 6.92,8.66 3.47,3.46 10.39,6.93 15.58,8.66 1.73,-1.73 3.46,-5.2 5.19,-8.66" />
			<path id="path92" style="fill:#000000;fill-opacity:1;fill-rule:nonzero;stroke:none" d="m 2364.77,2655.38 c -31.17,-12.12 -55.41,19.03 -74.45,-10.38 -34.62,-13.86 8.65,-22.52 19.04,-24.25 25.97,-3.45 65.79,-3.45 79.64,19.05 8.65,0 17.31,0 25.96,0 5.2,-10.39 17.32,-3.46 12.13,-19.05 -10.39,0 -15.59,-12.12 -24.25,-12.12 -51.93,-3.46 -119.44,-20.78 -162.73,12.12 6.93,20.79 19.05,50.22 46.75,53.66 27.71,-1.71 62.32,5.22 77.91,-19.03" />
			<path id="path94" style="fill:#fdd2be;fill-opacity:1;fill-rule:nonzero;stroke:none" d="m 2364.77,2655.38 c 8.65,-5.19 17.3,-10.38 24.23,-15.58 -13.85,-22.5 -53.67,-22.5 -79.64,-19.05 -10.39,1.73 -53.66,10.39 -19.04,24.25 19.04,29.41 43.28,-1.74 74.45,10.38" />
			<path id="path96" style="fill:#918ec3;fill-opacity:1;fill-rule:nonzero;stroke:none" d="M 5470.45,2347.23 C 5306,2191.44 5132.88,2058.14 4939,1973.3 c -8.67,-5.19 -12.12,-13.85 0,-15.57 1.71,-6.93 8.65,-3.46 5.19,-10.39 -219.87,-84.83 -498.57,-31.17 -747.87,-46.73 1.74,38.06 8.65,72.69 6.92,112.53 76.19,6.9 141.97,-13.88 218.13,-6.95 1.74,-17.31 -10.38,-32.89 -6.92,-48.46 17.32,8.65 45.02,13.84 43.28,39.81 119.45,25.97 249.27,34.63 373.94,53.66 5.18,-17.31 -8.66,-29.41 0,-45.01 19.03,6.95 20.76,29.45 31.14,38.1 5.21,0 8.65,0 13.86,0 5.19,-12.12 10.38,0 17.31,-3.47 27.7,13.85 24.25,46.74 50.21,57.13 19.03,8.65 46.73,8.65 53.66,31.15 58.87,25.97 121.19,46.75 183.5,64.06 1.73,-5.19 -3.45,-13.84 3.47,-17.31 15.56,3.47 29.43,13.84 39.81,27.7 0,6.92 0,15.57 0,24.24 86.55,32.89 161.01,88.3 249.29,136.76 0,-5.19 -1.72,-12.12 -3.47,-17.32" />
			<path id="path98" style="fill:#03060e;fill-opacity:1;fill-rule:nonzero;stroke:none" d="m 4779.74,2071.98 c -10.4,0 -19.06,0 -27.71,0 6.92,5.19 15.57,10.4 24.23,15.58 1.73,-5.18 1.73,-10.39 3.48,-15.58" />
			<path id="path100" style="fill:#32468c;fill-opacity:1;fill-rule:nonzero;stroke:none" d="m 4823.01,2078.91 c 17.31,6.91 20.77,3.47 19.03,-6.93 -6.92,1.73 -19.03,-5.18 -19.03,6.93" />
			<path id="path102" style="fill:#918ec3;fill-opacity:1;fill-rule:nonzero;stroke:none" d="m 4876.67,2044.29 c -5.21,0 -8.65,0 -13.86,0 1.74,6.91 3.48,12.12 3.48,19.03 17.32,17.32 20.76,-17.3 10.38,-19.03" />
			<path id="path104" style="fill:#7e1a0f;fill-opacity:1;fill-rule:nonzero;stroke:none" d="m 6583.59,1938.67 c -1.73,0 -3.45,0 -6.93,0 0,5.22 -1.73,12.13 -1.73,19.06 12.12,0 13.86,-13.84 8.66,-19.06" />
			<path id="path106" style="fill:#bd2717;fill-opacity:1;fill-rule:nonzero;stroke:none" d="m 6583.59,1938.67 c -1.73,-8.65 -1.73,-15.56 -3.45,-22.5 -8.66,5.19 -5.21,13.85 -3.48,22.5 3.48,0 5.2,0 6.93,0" />
			<path id="path108" style="fill:#918ec3;fill-opacity:1;fill-rule:nonzero;stroke:none" d="m 4940.71,1845.2 c -15.56,-76.17 -27.69,-154.08 -27.69,-237.17 -24.24,-5.19 -43.28,22.51 -62.32,12.13 15.59,-25.98 43.28,-36.37 62.32,-51.95 5.21,-107.32 10.38,-214.66 43.29,-309.87 -24.26,-1.74 -46.73,19.04 -67.53,6.93 13.86,-39.81 58.87,-25.96 74.44,-53.69 -3.46,-1.72 -8.65,-1.72 -12.11,-5.18 3.46,-15.57 13.85,-29.43 27.71,-41.54 6.91,0 12.1,0 19.03,0 51.94,-69.25 86.56,-145.41 114.25,-223.317 -15.58,-1.738 -5.19,-15.598 0,-22.512 24.25,-8.648 32.91,-32.898 41.55,-51.929 48.48,-62.336 100.41,-128.11 164.48,-178.301 6.93,-6.946 15.57,-12.133 15.57,-22.524 -1.74,-1.726 -3.49,-3.457 -5.2,-5.183 -122.9,91.738 -228.5,190.422 -311.61,304.687 -67.52,95.199 -128.11,192.139 -181.77,292.559 -19.03,3.46 0,-36.35 -24.25,-17.31 -98.65,188.7 -204.25,373.93 -197.33,607.63 117.71,0 226.78,15.58 330.65,46.74 0,-17.31 3.46,-36.35 -3.48,-50.2" />
			<path id="path110" style="fill:#918ec3;fill-opacity:1;fill-rule:nonzero;stroke:none" d="m 2960.28,1864.24 c -24.23,-152.34 -19.05,-316.8 -27.7,-474.33 -19.05,1.72 -34.62,-1.75 -46.74,-8.65 -13.85,0 -25.96,1.72 -38.09,1.72 1.74,51.94 1.74,102.15 3.47,154.09 8.66,95.21 3.45,199.08 27.69,289.08 25.97,12.12 51.93,31.17 81.37,38.09" />
			<path id="path112" style="fill:#918ec3;fill-opacity:1;fill-rule:nonzero;stroke:none" d="m 2832.18,1794.99 c -22.52,-136.75 -31.17,-280.45 -39.82,-424.12 -119.45,-230.24 -188.7,-481.268 -418.94,-666.507 -12.12,-1.726 -24.24,1.75 -15.58,15.586 6.93,8.664 19.04,13.852 19.04,24.231 -8.66,20.769 -22.5,-1.719 -34.62,-1.719 -70.98,-67.52 -157.54,-124.656 -254.48,-143.691 -76.17,-10.403 -162.73,-6.934 -240.63,-3.465 -3.47,3.465 -8.65,6.929 -5.2,12.129 38.09,19.031 77.91,34.609 110.8,65.769 15.58,3.465 25.96,-5.183 38.08,-6.926 -15.58,45.024 48.47,53.672 69.25,91.758 41.54,58.852 96.95,112.531 126.37,176.574 10.39,1.739 24.25,-3.457 31.17,6.934 -13.86,5.187 -10.39,22.5 -5.2,31.145 10.39,3.464 22.51,3.464 31.17,12.128 0,5.184 -8.66,6.93 -6.93,12.118 50.2,140.226 90.02,285.646 121.18,432.796 29.43,1.72 57.12,8.66 81.36,19.03 -13.84,24.24 -48.47,13.85 -74.43,15.59 1.73,55.41 25.96,105.6 15.58,162.71 86.55,45.02 152.33,109.09 245.82,109.09 70.97,15.57 135.03,43.28 206.01,58.84" />
			<path id="path114" style="fill:#476aaf;fill-opacity:1;fill-rule:nonzero;stroke:none" d="m 2361.3,1569.95 c -5.19,-32.88 -13.85,-67.51 -15.58,-102.14 -20.78,-19.05 -55.4,-1.74 -77.9,-15.58 17.31,-17.31 45.01,-19.03 65.78,-22.5 -19.03,-91.76 -50.2,-178.32 -74.44,-266.6 -12.12,-48.48 -25.96,-96.95 -38.09,-143.68 -5.19,-3.47 -6.92,-13.85 -15.58,-10.39 0,6.92 -6.92,10.39 -8.65,15.57 -17.31,-31.161 -51.94,-3.47 -74.44,-12.13 -1.73,-13.84 13.85,-13.84 20.77,-20.754 10.39,-3.465 39.82,8.654 27.7,-15.594 -1.73,-34.609 -77.9,3.465 -51.93,-34.609 60.59,15.574 17.31,-34.629 12.11,-57.129 -45,-67.527 -100.41,-135.027 -167.91,-180.051 -25.98,0 -41.55,24.25 -65.78,24.25 -5.21,-24.25 45,-22.5 31.15,-51.945 -74.44,-45.016 -155.8,-81.363 -249.29,-69.234 -102.13,39.812 -235.43,45 -289.1,159.265 -15.58,3.449 -10.38,-24.238 -25.97,-8.664 -22.5,55.383 0,117.715 27.7,164.477 -10.39,6.902 -17.31,-12.129 -31.15,-8.664 15.57,62.304 86.55,100.402 138.48,140.212 83.1,53.65 173.12,96.95 276.99,105.6 27.7,-117.71 79.63,-240.629 190.43,-306.41 5.19,5.188 6.93,10.383 5.19,15.57 -58.86,91.754 -160.99,180.05 -133.29,309.88 31.15,8.66 27.69,-31.15 51.93,-41.54 20.77,-5.2 31.16,-39.83 57.12,-20.78 84.83,38.09 107.34,129.83 174.85,188.7 57.13,84.83 90.02,180.05 114.26,275.26 39.82,6.91 76.17,24.22 124.64,39.82 0,-17.32 0,-32.91 0,-50.21" />
			<path id="path116" style="fill:#a82b92;fill-opacity:1;fill-rule:nonzero;stroke:none" d="m 1765.78,1611.49 c 84.83,-46.74 162.73,-107.33 240.63,-171.38 3.47,-20.79 -3.46,-39.82 -15.58,-50.2 -3.46,0 -6.92,0 -8.66,0 -77.9,77.9 -164.45,135.03 -237.17,214.65 -6.92,15.6 15.6,8.66 20.78,6.93" />
			<path id="path118" style="fill:#476aaf;fill-opacity:1;fill-rule:nonzero;stroke:none" d="m 2174.34,1521.48 c -13.86,-50.21 -32.89,-98.69 -55.4,-143.69 -17.32,-1.74 -1.74,22.5 -15.58,27.69 -58.86,-84.8 -83.09,-181.77 -159.27,-257.93 -20.77,-3.47 -31.16,25.97 -46.73,31.15 -8.66,12.13 -22.52,27.7 -22.52,46.76 34.62,1.72 62.32,31.14 81.37,55.38 10.39,1.74 22.5,-5.2 27.7,6.93 3.46,36.34 31.16,64.05 46.73,95.21 32.91,50.22 25.97,114.25 53.68,166.19 27.69,-5.19 141.95,55.39 90.02,-27.69" />
			<path id="path120" style="fill:#a82b92;fill-opacity:1;fill-rule:nonzero;stroke:none" d="m 1807.33,1507.63 c 55.4,-50.21 114.26,-100.4 167.92,-152.35 1.73,-13.85 -15.57,-24.23 -24.23,-31.17 -20.78,-3.43 -13.86,19.07 -29.43,25.98 -64.06,74.45 -160.99,107.33 -180.04,207.73 29.42,0 43.27,-32.88 65.78,-50.19" />
			<path id="path122" style="fill:#a82b92;fill-opacity:1;fill-rule:nonzero;stroke:none" d="m 1999.49,1502.44 c 6.92,-5.21 13.85,-8.66 19.05,-12.13 13.84,-24.24 3.45,-38.08 -12.13,-31.16 -36.36,32.88 -83.09,60.61 -105.61,98.67 41.56,1.74 64.07,-43.28 98.69,-55.38" />
			<path id="path124" style="fill:#ffffff;fill-opacity:1;fill-rule:nonzero;stroke:none" d="m 6112.73,1557.82 c 29.41,-96.93 91.73,-181.77 124.63,-283.91 -5.19,1.73 -10.39,1.73 -15.6,3.47 -43.27,88.28 -110.77,176.57 -114.24,280.44 1.73,0 3.47,0 5.21,0" />
			<path id="path126" style="fill:#a82b92;fill-opacity:1;fill-rule:nonzero;stroke:none" d="m 2037.58,1521.48 c -6.94,-6.94 0,-22.5 -12.12,-22.5 -6.92,3.46 -12.12,6.9 -19.05,8.65 -12.11,10.38 -22.5,20.78 -34.62,31.16 -5.19,3.47 -5.19,10.38 0,13.85 20.77,-15.57 91.76,20.76 65.79,-31.16" />
			<path id="path128" style="fill:#0b010c;fill-opacity:1;fill-rule:nonzero;stroke:none" d="m 2025.46,1498.98 c -1.73,-3.47 -5.19,-6.95 -6.92,-8.67 -5.2,3.47 -12.13,6.92 -19.05,12.13 1.73,1.72 5.19,3.44 6.92,5.19 6.93,-1.75 12.13,-5.19 19.05,-8.65" />
			<path id="path130" style="fill:#a82b92;fill-opacity:1;fill-rule:nonzero;stroke:none" d="m 1885.23,1343.18 c 17.31,-10.41 41.55,-27.72 43.28,-50.23 -6.92,-10.37 -20.76,-3.47 -31.15,-5.18 -36.36,46.74 -112.54,83.1 -109.08,141.96 36.36,-19.05 64.06,-57.13 96.95,-86.55" />
			<path id="path132" style="fill:#918ec3;fill-opacity:1;fill-rule:nonzero;stroke:none" d="m 2885.84,1381.26 c 3.46,-3.47 10.39,-6.94 15.58,-10.39 10.39,-3.47 22.5,-1.74 32.9,-5.21 0,-110.79 29.43,-211.19 31.15,-315.06 -1.72,0 -3.46,0 -5.19,0 -15.58,5.19 -5.19,20.77 -15.58,27.7 -1.73,13.85 -8.65,15.57 -10.38,19.03 -17.32,1.73 -1.74,-12.12 -1.74,-19.03 5.19,-36.35 12.12,-70.98 17.31,-105.612 -10.39,-8.645 -27.7,5.195 -32.89,-12.114 12.13,-15.574 51.94,5.207 46.75,-29.422 8.65,-20.769 -15.59,-5.207 -19.05,-17.304 5.19,-10.403 19.05,-8.653 24.24,-13.868 20.77,-181.765 100.4,-339.304 181.76,-498.574 -13.84,-3.465 -27.69,-3.465 -38.08,-12.121 12.12,-15.562 34.62,-6.91 53.67,-8.66 81.36,-115.969 199.08,-223.301 320.25,-283.8867 0,-10.3985 -17.31,-12.1289 -24.22,-6.9336 -221.59,60.5863 -451.84,275.2543 -496.85,505.5003 -8.65,6.929 -3.46,19.031 -15.58,24.246 -1.73,-5.215 -8.66,-8.653 -8.66,-15.586 -1.73,0 -5.18,0 -6.91,0 -98.68,231.973 -91.76,507.215 -86.57,779.015 12.13,0 24.24,-1.72 38.09,-1.72" />
			<path id="path134" style="fill:#a82b92;fill-opacity:1;fill-rule:nonzero;stroke:none" d="m 1857.53,1292.95 c 6.93,-15.57 -15.58,-8.65 -19.03,-5.18 -15.59,20.78 13.84,20.78 19.03,5.18" />
			<path id="path136" style="fill:#13111c;fill-opacity:1;fill-rule:nonzero;stroke:none" d="m 2944.7,1078.3 c -5.2,0 -8.65,0 -12.12,0 0,6.91 -15.58,20.76 1.74,19.03 1.73,-3.46 8.65,-5.18 10.38,-19.03" />
			<path id="path138" style="fill:#918ec3;fill-opacity:1;fill-rule:nonzero;stroke:none" d="m 2965.47,1050.6 c 3.47,-5.19 6.93,-8.65 10.39,-12.12 1.73,-6.92 -1.73,-19.03 -10.39,-15.57 -6.92,6.91 -13.85,17.32 -5.19,27.69 1.73,0 3.47,0 5.19,0" />
			<path id="path140" style="fill:#8883bd;fill-opacity:1;fill-rule:nonzero;stroke:none" d="m 3000.09,938.074 c 5.2,-15.562 -6.91,-12.129 -15.57,-15.562 -10.39,10.371 3.46,39.793 15.57,15.562" />
			<path id="path142" style="fill:#000000;fill-opacity:1;fill-rule:nonzero;stroke:none" d="m 3374.02,654.172 c -5.19,-5.207 -15.58,-5.207 -20.77,0 3.46,3.457 6.93,10.379 20.77,12.105 0,-3.457 0,-6.922 0,-12.105" />
			<path id="path144" style="fill:#918ec3;fill-opacity:1;fill-rule:nonzero;stroke:none" d="m 5328.5,661.094 c 1.71,1.726 3.46,3.457 5.2,5.183 5.18,0 10.39,-1.726 15.58,-1.726 8.66,-6.922 12.12,-13.848 10.39,-22.508 -13.86,0 -31.17,3.465 -31.17,19.051" />
		</g>
	</g>
</svg>